<?xml version="1.0" standalone="no"?><!DOCTYPE svg PUBLIC "-//W3C//DTD SVG 1.1//EN" "http://www.w3.org/Graphics/SVG/1.1/DTD/svg11.dtd"><svg t="1714136447578" class="icon" viewBox="0 0 1024 1024" version="1.1" xmlns="http://www.w3.org/2000/svg" p-id="1212" xmlns:xlink="http://www.w3.org/1999/xlink" width="80" height="80"><path d="M0 0h1024v1024H0z" fill="#FFFFFF" fill-opacity=".01" p-id="1213"></path><path d="M182.857143 731.428571a36.571429 36.571429 0 0 1 36.571428 36.571429v36.571429h585.142858v-36.571429a36.571429 36.571429 0 0 1 36.571428-36.571429h73.142857a36.571429 36.571429 0 0 1 36.571429 36.571429v146.285714a36.571429 36.571429 0 0 1-29.988572 35.986286L914.285714 950.857143h-804.571428a36.571429 36.571429 0 0 1-36.571429-36.571429v-146.285714a36.571429 36.571429 0 0 1 36.571429-36.571429h73.142857z m363.300571-658.285714a37.741714 37.741714 0 0 1 27.428572 12.068572l226.596571 256.512a16.749714 16.749714 0 0 1 2.486857 19.017142 19.382857 19.382857 0 0 1-17.481143 10.020572h-99.474285c0 299.446857-287.378286 352.914286-442.294857 360.009143-10.093714 2.56-20.48-2.925714-23.332572-12.214857-2.779429-9.362286 3.145143-19.017143 13.238857-21.577143 115.2-57.344 165.961143-154.843429 171.958857-307.565715v-17.92h-98.742857a19.382857 19.382857 0 0 1-18.066285-10.313142 16.822857 16.822857 0 0 1 3.291428-19.456l226.523429-257.170286A37.888 37.888 0 0 1 546.084571 73.142857z" fill="#5A6677" p-id="1214"></path></svg>