<?xml version="1.0" standalone="no"?><!DOCTYPE svg PUBLIC "-//W3C//DTD SVG 1.1//EN" "http://www.w3.org/Graphics/SVG/1.1/DTD/svg11.dtd"><svg t="1714136457792" class="icon" viewBox="0 0 1024 1024" version="1.1" xmlns="http://www.w3.org/2000/svg" p-id="1381" xmlns:xlink="http://www.w3.org/1999/xlink" width="80" height="80"><path d="M0 0h1024v1024H0z" fill="#FFFFFF" fill-opacity=".01" p-id="1382"></path><path d="M182.857143 731.428571a36.571429 36.571429 0 0 1 36.571428 36.571429v36.571429h585.142858v-36.571429a36.571429 36.571429 0 0 1 36.571428-36.571429h73.142857a36.571429 36.571429 0 0 1 36.571429 36.571429v146.285714a36.571429 36.571429 0 0 1-29.988572 35.986286L914.285714 950.857143h-804.571428a36.571429 36.571429 0 0 1-36.571429-36.571429v-146.285714a36.571429 36.571429 0 0 1 36.571429-36.571429h73.142857z m18.944-658.285714l5.046857 0.658286c154.916571 7.094857 442.294857 60.562286 442.294857 360.009143h99.474286a19.382857 19.382857 0 0 1 17.554286 10.093714 16.749714 16.749714 0 0 1-2.56 19.017143L537.014857 719.286857a37.741714 37.741714 0 0 1-27.428571 12.068572 37.888 37.888 0 0 1-27.794286-11.410286L255.122286 462.848a16.822857 16.822857 0 0 1-3.291429-19.456 19.382857 19.382857 0 0 1 18.066286-10.24h98.742857v-17.993143c-5.997714-152.722286-56.758857-250.148571-171.885714-307.565714-10.166857-2.56-16.091429-12.214857-13.312-21.577143 2.779429-9.289143 13.165714-14.774857 23.332571-12.214857L201.728 73.142857z" fill="#5A6677" p-id="1383"></path></svg>